<?xml version="1.0" encoding="utf-8"?>
<svg width="94" height="34" viewBox="0 0 94 34" fill="none" xmlns="http://www.w3.org/2000/svg">
  <mask id="a" maskUnits="userSpaceOnUse" x="0" y="0" width="94" height="34">
    <path d="M0 0h93.452v33.308H0" fill="#fff"/>
  </mask>
  <g mask="url(#a)">
    <path fill-rule="evenodd" clip-rule="evenodd" d="M 88.564 13.333 C 86.981 14.003 86.801 14.611 86.801 16.336 L 86.801 21.574 C 86.801 24.034 85.901 25.248 83.96 25.248 C 82.017 25.248 81.118 24.034 81.118 21.574 L 81.118 11.448 C 81.118 8.988 82.018 7.806 83.96 7.806 C 85.075 7.806 85.974 8.317 86.657 9.404 C 87.844 8.286 89.175 7.711 90.506 7.711 C 92.088 7.711 93.383 8.861 93.383 10.202 C 93.383 12.215 90.865 12.374 88.563 13.332 Z M 69.644 25.536 C 64.142 25.536 61.084 22.98 61.084 18.156 L 61.084 11.448 C 61.084 8.988 61.984 7.806 63.926 7.806 C 65.832 7.806 66.731 8.989 66.731 11.448 L 66.731 17.134 C 66.731 19.498 67.343 20.808 69.645 20.808 C 71.947 20.808 72.558 19.498 72.558 17.134 L 72.558 11.448 C 72.558 8.988 73.458 7.806 75.399 7.806 C 77.342 7.806 78.205 8.989 78.205 11.448 L 78.205 18.157 C 78.205 22.98 75.148 25.536 69.645 25.536 Z M 49.072 12.406 C 46.986 12.406 45.367 14.004 45.367 16.527 C 45.367 19.115 46.95 20.744 49.072 20.744 C 51.194 20.744 52.812 19.083 52.812 16.527 C 52.812 14.004 51.158 12.407 49.072 12.407 Z M 56.877 28.538 C 55.223 30.998 52.273 32.308 48.245 32.308 C 43.065 32.308 39.937 30.615 39.937 28.634 C 39.937 27.356 40.979 26.43 42.382 26.43 C 43.785 26.43 45.475 27.772 48.461 27.772 C 51.231 27.772 52.884 26.27 52.884 23.523 C 52.884 23.332 52.848 23.139 52.848 22.916 C 51.626 24.481 49.935 25.28 47.706 25.28 C 43.246 25.28 39.505 21.638 39.505 16.527 C 39.505 11.417 43.497 7.615 48.317 7.615 C 50.259 7.615 51.698 8.19 52.848 9.404 C 53.496 8.349 54.503 7.806 55.366 7.806 C 57.308 7.806 58.208 8.989 58.208 11.448 L 58.208 21.574 C 58.208 24.609 57.992 26.909 56.877 28.538 Z M 34.397 25.248 C 32.456 25.248 31.592 24.034 31.592 21.574 L 31.592 15.888 C 31.592 13.333 30.837 12.055 29.002 12.055 C 26.952 12.055 26.162 13.333 26.162 15.825 L 26.162 21.575 C 26.162 24.035 25.262 25.248 23.32 25.248 C 21.377 25.248 20.479 24.034 20.479 21.574 L 20.479 15.888 C 20.479 13.333 19.759 12.055 17.925 12.055 C 15.875 12.055 15.083 13.333 15.083 15.825 L 15.083 21.575 C 15.083 24.035 14.184 25.248 12.243 25.248 C 10.3 25.248 9.401 24.034 9.401 21.574 L 9.401 11.448 C 9.401 8.988 10.3 7.806 12.242 7.806 C 13.357 7.806 14.256 8.317 14.939 9.404 C 16.127 8.254 17.565 7.743 19.472 7.743 C 21.917 7.743 23.788 8.542 25.118 10.107 C 26.844 8.414 28.499 7.743 30.837 7.743 C 34.757 7.743 37.239 10.011 37.239 14.355 L 37.239 21.575 C 37.239 24.035 36.339 25.248 34.397 25.248 Z M 3.43 7.806 C 5.337 7.806 6.235 8.989 6.235 11.448 L 6.235 21.574 C 6.235 24.034 5.373 25.248 3.43 25.248 C 1.488 25.248 0.589 24.034 0.589 21.574 L 0.589 11.448 C 0.589 8.988 1.489 7.806 3.43 7.806 Z" style="fill: rgb(255, 255, 255); stroke: rgb(39, 39, 39);"/>
  </g>
  <path fill-rule="evenodd" clip-rule="evenodd" d="M0 3.756c0-1.648 1.586-3 3.52-3 1.933 0 3.48 1.352 3.48 3 0 1.681-1.547 3-3.48 3-1.973 0-3.52-1.319-3.52-3z" fill="#fff"/>
</svg>